<mxfile host="app.diagrams.net" modified="2020-11-03T05:40:22.281Z" agent="5.0 (Windows NT 6.1; Win64; x64) AppleWebKit/537.36 (KHTML, like Gecko) Chrome/86.0.4240.111 Safari/537.36" etag="J9NjvQtPV36PbYNL91eb" version="13.8.8" type="github">
  <diagram id="WmEfbsUR7dFWygaNT8UW" name="Page-1">
    <mxGraphModel dx="1102" dy="614" grid="1" gridSize="10" guides="1" tooltips="1" connect="1" arrows="1" fold="1" page="1" pageScale="1" pageWidth="850" pageHeight="1100" math="0" shadow="0">
      <root>
        <mxCell id="0" />
        <mxCell id="1" parent="0" />
        <mxCell id="oxNGGu0r3L-uksmLSgFx-2" value="" style="endArrow=classic;html=1;exitX=0;exitY=0.969;exitDx=0;exitDy=0;strokeWidth=3;exitPerimeter=0;entryX=0.5;entryY=0;entryDx=0;entryDy=0;" parent="1" source="QpMVC8jX2KTKUHyMNApa-1" target="oxNGGu0r3L-uksmLSgFx-7" edge="1">
          <mxGeometry width="50" height="50" relative="1" as="geometry">
            <mxPoint x="415" y="550" as="sourcePoint" />
            <mxPoint x="415" y="710" as="targetPoint" />
          </mxGeometry>
        </mxCell>
        <mxCell id="oxNGGu0r3L-uksmLSgFx-3" value="" style="endArrow=classic;html=1;exitX=1;exitY=0.5;exitDx=0;exitDy=0;strokeWidth=3;entryX=0;entryY=0.75;entryDx=0;entryDy=0;" parent="1" source="QpMVC8jX2KTKUHyMNApa-1" target="oxNGGu0r3L-uksmLSgFx-6" edge="1">
          <mxGeometry width="50" height="50" relative="1" as="geometry">
            <mxPoint x="510" y="495" as="sourcePoint" />
            <mxPoint x="620" y="410" as="targetPoint" />
          </mxGeometry>
        </mxCell>
        <mxCell id="oxNGGu0r3L-uksmLSgFx-5" value="" style="endArrow=classic;html=1;exitX=0.025;exitY=0.01;exitDx=0;exitDy=0;strokeWidth=3;exitPerimeter=0;entryX=1.004;entryY=0.536;entryDx=0;entryDy=0;entryPerimeter=0;" parent="1" source="QpMVC8jX2KTKUHyMNApa-1" edge="1" target="oxNGGu0r3L-uksmLSgFx-8">
          <mxGeometry width="50" height="50" relative="1" as="geometry">
            <mxPoint x="320" y="495" as="sourcePoint" />
            <mxPoint x="270" y="350" as="targetPoint" />
          </mxGeometry>
        </mxCell>
        <mxCell id="oxNGGu0r3L-uksmLSgFx-6" value="&lt;div style=&quot;font-size: 20px&quot;&gt;&lt;font style=&quot;font-size: 20px&quot;&gt;Static Websites&lt;/font&gt;&lt;/div&gt;&lt;div style=&quot;font-size: 20px&quot;&gt;&lt;font style=&quot;font-size: 20px&quot;&gt;&lt;span&gt;&lt;/span&gt;(A static website contains web pages which have fixed content.&lt;/font&gt;&lt;/div&gt;&lt;div style=&quot;font-size: 20px&quot;&gt;&lt;font style=&quot;font-size: 20px&quot;&gt;&lt;span&gt;		&lt;/span&gt;Each page displays the same information to every visitor to website.)&lt;/font&gt;&lt;/div&gt;&lt;div style=&quot;font-size: 20px&quot;&gt;&lt;br&gt;&lt;/div&gt;" style="rounded=1;whiteSpace=wrap;html=1;strokeWidth=3;" parent="1" vertex="1">
          <mxGeometry x="620" y="250" width="210" height="260" as="geometry" />
        </mxCell>
        <mxCell id="oxNGGu0r3L-uksmLSgFx-7" value="&lt;div style=&quot;font-size: 20px&quot;&gt;&lt;font style=&quot;font-size: 20px&quot;&gt;Dynamic Websites&lt;/font&gt;&lt;/div&gt;&lt;div style=&quot;font-size: 20px&quot;&gt;&lt;font style=&quot;font-size: 20px&quot;&gt;&lt;span&gt;&lt;/span&gt;(Dynamic Websites contain Web pages that are generated in real-time (Change time to time).&lt;/font&gt;&lt;/div&gt;&lt;div style=&quot;font-size: 20px&quot;&gt;&lt;font style=&quot;font-size: 20px&quot;&gt;		These websites have both Back-End and Front-End (Back-End generates new webpages to show in Front-End)&lt;/font&gt;&lt;/div&gt;" style="rounded=1;whiteSpace=wrap;html=1;strokeWidth=3;" parent="1" vertex="1">
          <mxGeometry x="260" y="700" width="260" height="340" as="geometry" />
        </mxCell>
        <mxCell id="oxNGGu0r3L-uksmLSgFx-8" value="&lt;div style=&quot;font-size: 20px&quot;&gt;&lt;font style=&quot;font-size: 20px&quot;&gt;Responsive Websites&lt;/font&gt;&lt;/div&gt;&lt;div style=&quot;font-size: 20px&quot;&gt;&lt;font style=&quot;font-size: 20px&quot;&gt;&lt;span&gt;&lt;/span&gt;(These are websites that can change their appearance to look good.&lt;/font&gt;&lt;/div&gt;&lt;div style=&quot;font-size: 20px&quot;&gt;&lt;font style=&quot;font-size: 20px&quot;&gt;&lt;span&gt;		&lt;/span&gt;According to the screen sizes like in phone,tablet,laptop etc.)&lt;/font&gt;&lt;/div&gt;&lt;div style=&quot;font-size: 20px&quot;&gt;&lt;br&gt;&lt;/div&gt;" style="rounded=1;whiteSpace=wrap;html=1;strokeWidth=3;" parent="1" vertex="1">
          <mxGeometry x="40" y="210" width="230" height="287.5" as="geometry" />
        </mxCell>
        <mxCell id="QpMVC8jX2KTKUHyMNApa-1" value="" style="triangle;whiteSpace=wrap;html=1;strokeWidth=3;" parent="1" vertex="1">
          <mxGeometry x="390" y="426.75" width="140" height="133.25" as="geometry" />
        </mxCell>
        <mxCell id="QpMVC8jX2KTKUHyMNApa-2" value="&lt;font style=&quot;font-size: 20px&quot;&gt;Types of Websites&lt;/font&gt;" style="text;html=1;strokeColor=none;fillColor=none;align=center;verticalAlign=middle;whiteSpace=wrap;rounded=0;" parent="1" vertex="1">
          <mxGeometry x="390" y="460.63" width="95" height="62.25" as="geometry" />
        </mxCell>
      </root>
    </mxGraphModel>
  </diagram>
</mxfile>
